<svg xmlns="http://www.w3.org/2000/svg" viewBox="0 0 587.8 66.8"><path d="M163.8 16.2c-8.2-5.3-20.5-.4-20.5 10.9 0 11.8 13 16.6 20.9 10.6l5.4 6.2c-3.8 3.1-8.6 5-13.9 5-12 0-21.8-9.8-21.8-21.8s9.8-21.8 21.8-21.8c5 0 9.7 1.7 13.4 4.6l-5.3 6.3zm19.1 8.9c1.9-2.5 5.3-3.6 8.8-3.6 1.5 0 3 .2 4.4.7l-2.9 6.7c-4.4-1.9-8.8.7-9.6 4.9v14.3H176V22.2h5.8l1.1 2.9zm28.7 21.3L199 22.2h8.6l8.5 14.3 7.9-14.3h8.4l-23.2 44.6h-8.4l10.8-20.4zm25.3-7.2c3.8 4.3 9.5 4.5 9.5 1.3 0-1.9-1.9-2.5-3.8-3.1-5-1.6-8.5-3.1-8.5-8.1 0-4.7 4.3-7.9 9.2-7.9 4.4 0 6.8 1 10.3 3.1l-3.5 5.5c-5-3.6-8.5-3.3-8.8-.5-.3 1.9 2.5 2.3 5.5 3.3 3.7 1.1 7.1 3.5 7.1 8 0 4.1-4.3 8.1-9.5 8.1-4.7 0-9.1-1.5-12.3-4.7l4.8-5zm39.6-17v7h-6V48h-7.6V29.2h-5.4v-7h5.4v-9.6h7.6v9.6h6zm30.1 0v25.9h-6.4v-2.5c-2.4 2-5.5 3.2-8.9 3.2-7.6 0-13.7-6.1-13.7-13.7s6.1-13.7 13.7-13.7c3.4 0 6.5 1.2 8.9 3.2l.6-2.5h5.8zM299 35.1c0-1.9-.7-3.7-2-5-1.3-1.3-2.9-2-4.7-2-1.8 0-3.5.7-4.8 2-1.3 1.3-2 3.1-2 5s.7 3.6 2 5c1.3 1.3 3 2 4.8 2 1.8 0 3.5-.7 4.7-2 1.4-1.4 2-3.1 2-5zm13 13V3.4h7.7V48H312zm61-7.8h-17.4l-4 7.8h-9.4L363.6 6h2.5L386 48.1h-9.3l-3.7-7.8zm-4-8.4l-4.4-9.4-4.7 9.4h9.1zM411.2 44c-2.5 2.9-6.2 4.8-10.4 4.8-7.6 0-13.7-6.2-13.7-13.7 0-7.6 6.2-13.7 13.7-13.7 7.6 0 13.7 6.1 13.7 13.7 0 .8-.1 1.6-.2 2.5H395c.4 1 .8 1.8 1.5 2.5 1.3 1.4 2.9 2.1 4.6 2.1 1.6 0 3.2-.7 4.4-1.9l5.7 3.7zm-3.9-11.1c-.3-1.1-.8-2.1-1.6-2.9-1.2-1.3-2.9-2-4.6-2-1.7 0-3.4.7-4.6 2-.7.8-1.3 1.9-1.6 2.9h12.4zm14.3 6.3c3.8 4.3 9.5 4.5 9.5 1.3 0-1.9-1.9-2.5-3.8-3.1-5-1.6-8.5-3.1-8.5-8.1 0-4.7 4.3-7.9 9.2-7.9 4.4 0 6.8 1 10.3 3.1l-3.5 5.5c-5-3.6-8.5-3.3-8.8-.5-.3 1.9 2.5 2.3 5.5 3.3 3.7 1.1 7.1 3.5 7.1 8 0 4.1-4.3 8.1-9.5 8.1-4.7 0-9.1-1.5-12.3-4.7l4.8-5zm39.6-17v7h-6V48h-7.6V29.2h-5.4v-7h5.4v-9.6h7.6v9.6h6zm12.6 1.6c2.2-1.5 4.9-2.4 7.7-2.4 7.6 0 13.7 6.2 13.7 13.7V48h-7.9V35.2c0-1.9-.7-3.6-2-5-1.3-1.3-2.9-2-4.7-2-1.8 0-3.5.7-4.8 2-1.3 1.4-2 3.1-2 5v12.9h-8V3.4h8v20.4zM523 44c-2.5 2.9-6.2 4.8-10.4 4.8-7.6 0-13.7-6.2-13.7-13.7 0-7.6 6.2-13.7 13.7-13.7 7.6 0 13.7 6.1 13.7 13.7 0 .8-.1 1.6-.2 2.5h-19.3c.4 1 .8 1.8 1.5 2.5 1.3 1.4 2.9 2.1 4.6 2.1 1.6 0 3.2-.7 4.4-1.9L523 44zm-3.9-11.1c-.3-1.1-.8-2.1-1.6-2.9-1.2-1.3-2.9-2-4.6-2-1.7 0-3.4.7-4.6 2-.7.8-1.3 1.9-1.6 2.9h12.4zm28.5-10.7v7h-6V48H534V29.2h-5.4v-7h5.4v-9.6h7.6v9.6h6zm4.7-7.8V6h7.7v8.4h-7.7zm0 33.7V22.2h7.7v25.9h-7.7zm32-17.9c-3.9-4.3-12.3-1.6-12.3 4.9 0 5.8 7.8 9.4 12.3 5l3.4 6c-2.4 1.6-5.3 2.6-8.5 2.6-7.9 0-14.3-6.1-14.3-13.7s6.4-13.7 14.3-13.7c3.2 0 6.2 1 8.6 2.8l-3.5 6.1z" fill="#00516a"/><g stroke-width="1.821" stroke-miterlimit="10"><path d="M3.3 18.3l26.1 5.1m0 0L52.5 3m0 0l22.9 20.4m0 .5l26.6-6.2" fill="none" stroke="#00a1de"/><path fill="none" stroke="#0088bc" d="M16.3 3l36.2 56.6"/><path fill="#00a1de" stroke="#08b" d="M88.3 3l-35 55.5"/></g><path d="M17.1 1.6s-.6-.1-1.8 1.1L2.1 15.9s-1.2 1.7 0 2.8c1.2 1.1 49.1 40.9 49.1 40.9s1.3 1 2.6 0 49.3-41.1 49.3-41.1 1.2-1.1-.5-2.8L89.2 2.3s-.6-.7-2.1-.7h-70z" fill="none" stroke="#0088bc" stroke-width="3.186" stroke-miterlimit="10"/></svg>