<?xml version="1.0" encoding="utf-8"?>
<!-- Generator: Adobe Illustrator 22.1.0, SVG Export Plug-In . SVG Version: 6.00 Build 0)  -->
<svg version="1.1" id="Warstwa_1" xmlns="http://www.w3.org/2000/svg" xmlns:xlink="http://www.w3.org/1999/xlink" x="0px" y="0px"
	 viewBox="-265.8 -6.3 522 334.1" style="enable-background:new -265.8 -6.3 522 334.1;" xml:space="preserve">
<path d="M234.9-6.3h-500.7v334.1h522V-6.3L234.9-6.3z M214,14.6L12.4,216.2c-9.2,9.2-25.2,9.2-34.4,0L-223.8,14.6L214,14.6L214,14.6
	z M-245,22.9l135.6,135.5L-245,294L-245,22.9L-245,22.9z M-228.3,306.9l133.7-133.7l57.8,57.8c8.5,8.5,19.9,13.3,32,13.3
	c12.1,0,23.4-4.7,32-13.3l57.8-57.8l133.7,133.7L-228.3,306.9L-228.3,306.9z M235.3,294L99.7,158.5L235.3,22.9V294z"/>
</svg>
