<?xml version="1.0" encoding="utf-8"?>
<!-- Generator: Adobe Illustrator 22.1.0, SVG Export Plug-In . SVG Version: 6.00 Build 0)  -->
<svg version="1.1" id="Warstwa_1" xmlns="http://www.w3.org/2000/svg" xmlns:xlink="http://www.w3.org/1999/xlink" x="0px" y="0px"
	 viewBox="-259.9 -21.3 405.7 456.5" style="enable-background:new -259.9 -21.3 405.7 456.5;" xml:space="preserve">
<g id="icomoon-ignore">
</g>
<path d="M60.5,435.3c-38.5,0-132.3-49.3-211-155.1c-73.6-99-109.4-170.5-109.4-218.6c0-37.9,26.2-56,40.2-65.7l3.5-2.4
	c15.5-11.1,39.7-14.7,48.9-14.7c16.2,0,23.1,9.5,27.2,17.8c3.5,7,32.7,69.6,35.6,77.4c4.5,12,3,29.4-11,39.5l-2.5,1.7
	c-7,4.8-19.9,13.8-21.7,24.7c-0.9,5.3,0.9,10.8,5.4,16.9c22.6,30.4,94.6,119.7,107.6,131.8c10.2,9.5,23.1,10.9,31.9,3.5
	c9.1-7.7,13.1-12.2,13.2-12.2l0.9-0.9c0.8-0.7,7.9-6.3,19.5-6.3c8.4,0,16.9,2.9,25.3,8.6c21.9,14.8,71.2,47.7,71.2,47.7l0.8,0.6
	c6.3,5.4,15.4,21,4.8,41.2C130,391.8,95.8,435.2,60.5,435.3L60.5,435.3z M-167.3-4.3c-8,0-27.7,3.4-39.1,11.5l-3.7,2.6
	c-13.1,9.1-32.9,22.8-32.9,51.8c0,44.4,34.7,112.6,106,208.5C-59,374.9,30.1,418.4,60.4,418.4c25.8,0,55.5-36.1,65.6-55.4
	c6.2-11.9,1.1-18.6-0.6-20.4c-5.7-3.8-50.2-33.6-70.6-47.4c-5.6-3.8-10.9-5.7-15.8-5.7c-4.5,0-7.4,1.6-8.4,2.2
	c-1.6,1.8-6.2,6.4-14.3,13.2c-15.1,12.7-38,11.2-54.3-4c-14.6-13.7-88.6-105.7-109.7-134.1c-7.3-9.8-10.2-19.9-8.5-29.8
	c3-18,19.7-29.6,28.7-35.8l2.3-1.6c8.1-5.8,6.3-16.2,5-19.7c-2.5-6.6-31.3-68.5-34.9-75.8C-158.2-1.8-160.5-4.3-167.3-4.3
	L-167.3-4.3z"/>
</svg>
