<?xml version="1.0" encoding="utf-8"?>
<!-- Generator: Adobe Illustrator 22.1.0, SVG Export Plug-In . SVG Version: 6.00 Build 0)  -->
<svg version="1.1" id="Warstwa_1" xmlns="http://www.w3.org/2000/svg" xmlns:xlink="http://www.w3.org/1999/xlink" x="0px" y="0px"
	 viewBox="0 0 587.8 66.8" style="enable-background:new 0 0 587.8 66.8;" xml:space="preserve">
<style type="text/css">
	.st0{fill:#FFFFFF;}
	.st1{fill:none;stroke:#FFFFFF;stroke-width:1.8205;stroke-miterlimit:10;}
	.st2{fill:none;stroke:#FFFFFF;stroke-width:3.1859;stroke-miterlimit:10;}
</style>
<g id="Layer_1">
	<g>
		<path class="st0" d="M163.8,16.2c-8.2-5.3-20.5-0.4-20.5,10.9c0,11.8,13,16.6,20.9,10.6l5.4,6.2c-3.8,3.1-8.6,5-13.9,5
			c-12,0-21.8-9.8-21.8-21.8s9.8-21.8,21.8-21.8c5,0,9.7,1.7,13.4,4.6L163.8,16.2z"/>
		<path class="st0" d="M182.9,25.1c1.9-2.5,5.3-3.6,8.8-3.6c1.5,0,3,0.2,4.4,0.7l-2.9,6.7c-4.4-1.9-8.8,0.7-9.6,4.9v14.3H176V22.2
			h5.8L182.9,25.1z"/>
		<path class="st0" d="M211.6,46.4L199,22.2h8.6l8.5,14.3l7.9-14.3h8.4l-23.2,44.6h-8.4L211.6,46.4z"/>
		<path class="st0" d="M236.9,39.2c3.8,4.3,9.5,4.5,9.5,1.3c0-1.9-1.9-2.5-3.8-3.1c-5-1.6-8.5-3.1-8.5-8.1c0-4.7,4.3-7.9,9.2-7.9
			c4.4,0,6.8,1,10.3,3.1l-3.5,5.5c-5-3.6-8.5-3.3-8.8-0.5c-0.3,1.9,2.5,2.3,5.5,3.3c3.7,1.1,7.1,3.5,7.1,8c0,4.1-4.3,8.1-9.5,8.1
			c-4.7,0-9.1-1.5-12.3-4.7L236.9,39.2z"/>
		<path class="st0" d="M276.5,22.2v7h-6V48h-7.6V29.2h-5.4v-7h5.4v-9.6h7.6v9.6H276.5z"/>
		<path class="st0" d="M306.6,22.2v25.9h-6.4v-2.5c-2.4,2-5.5,3.2-8.9,3.2c-7.6,0-13.7-6.1-13.7-13.7s6.1-13.7,13.7-13.7
			c3.4,0,6.5,1.2,8.9,3.2l0.6-2.5h5.8V22.2z M299,35.1c0-1.9-0.7-3.7-2-5s-2.9-2-4.7-2c-1.8,0-3.5,0.7-4.8,2s-2,3.1-2,5s0.7,3.6,2,5
			c1.3,1.3,3,2,4.8,2s3.5-0.7,4.7-2C298.4,38.7,299,37,299,35.1z"/>
		<path class="st0" d="M312,48.1V3.4h7.7V48L312,48.1L312,48.1z"/>
		<path class="st0" d="M373,40.3h-17.4l-4,7.8h-9.4L363.6,6h2.5L386,48.1h-9.3L373,40.3z M369,31.9l-4.4-9.4l-4.7,9.4H369z"/>
		<path class="st0" d="M411.2,44c-2.5,2.9-6.2,4.8-10.4,4.8c-7.6,0-13.7-6.2-13.7-13.7c0-7.6,6.2-13.7,13.7-13.7
			c7.6,0,13.7,6.1,13.7,13.7c0,0.8-0.1,1.6-0.2,2.5H395c0.4,1,0.8,1.8,1.5,2.5c1.3,1.4,2.9,2.1,4.6,2.1c1.6,0,3.2-0.7,4.4-1.9
			L411.2,44z M407.3,32.9c-0.3-1.1-0.8-2.1-1.6-2.9c-1.2-1.3-2.9-2-4.6-2s-3.4,0.7-4.6,2c-0.7,0.8-1.3,1.9-1.6,2.9H407.3z"/>
		<path class="st0" d="M421.6,39.2c3.8,4.3,9.5,4.5,9.5,1.3c0-1.9-1.9-2.5-3.8-3.1c-5-1.6-8.5-3.1-8.5-8.1c0-4.7,4.3-7.9,9.2-7.9
			c4.4,0,6.8,1,10.3,3.1l-3.5,5.5c-5-3.6-8.5-3.3-8.8-0.5c-0.3,1.9,2.5,2.3,5.5,3.3c3.7,1.1,7.1,3.5,7.1,8c0,4.1-4.3,8.1-9.5,8.1
			c-4.7,0-9.1-1.5-12.3-4.7L421.6,39.2z"/>
		<path class="st0" d="M461.2,22.2v7h-6V48h-7.6V29.2h-5.4v-7h5.4v-9.6h7.6v9.6H461.2z"/>
		<path class="st0" d="M473.8,23.8c2.2-1.5,4.9-2.4,7.7-2.4c7.6,0,13.7,6.2,13.7,13.7V48h-7.9V35.2c0-1.9-0.7-3.6-2-5
			c-1.3-1.3-2.9-2-4.7-2c-1.8,0-3.5,0.7-4.8,2c-1.3,1.4-2,3.1-2,5v12.9h-8V3.4h8L473.8,23.8L473.8,23.8z"/>
		<path class="st0" d="M523,44c-2.5,2.9-6.2,4.8-10.4,4.8c-7.6,0-13.7-6.2-13.7-13.7c0-7.6,6.2-13.7,13.7-13.7
			c7.6,0,13.7,6.1,13.7,13.7c0,0.8-0.1,1.6-0.2,2.5h-19.3c0.4,1,0.8,1.8,1.5,2.5c1.3,1.4,2.9,2.1,4.6,2.1c1.6,0,3.2-0.7,4.4-1.9
			L523,44z M519.1,32.9c-0.3-1.1-0.8-2.1-1.6-2.9c-1.2-1.3-2.9-2-4.6-2c-1.7,0-3.4,0.7-4.6,2c-0.7,0.8-1.3,1.9-1.6,2.9H519.1z"/>
		<path class="st0" d="M547.6,22.2v7h-6V48H534V29.2h-5.4v-7h5.4v-9.6h7.6v9.6H547.6z"/>
		<path class="st0" d="M552.3,14.4V6h7.7v8.4H552.3z M552.3,48.1V22.2h7.7v25.9H552.3z"/>
		<path class="st0" d="M584.3,30.2c-3.9-4.3-12.3-1.6-12.3,4.9c0,5.8,7.8,9.4,12.3,5l3.4,6c-2.4,1.6-5.3,2.6-8.5,2.6
			c-7.9,0-14.3-6.1-14.3-13.7s6.4-13.7,14.3-13.7c3.2,0,6.2,1,8.6,2.8L584.3,30.2z"/>
	</g>
</g>
<g id="Layer_4">
	<line class="st1" x1="3.3" y1="18.3" x2="29.4" y2="23.4"/>
	<line class="st1" x1="29.4" y1="23.4" x2="52.5" y2="3"/>
	<line class="st1" x1="52.5" y1="3" x2="75.4" y2="23.4"/>
	<line class="st1" x1="75.4" y1="23.9" x2="102" y2="17.7"/>
	<g id="Layer_3">
		<line class="st1" x1="16.3" y1="3" x2="52.5" y2="59.6"/>
		<line class="st1" x1="88.3" y1="3" x2="53.3" y2="58.5"/>
	</g>
</g>
<g id="Layer_2">
	<path class="st2" d="M17.1,1.6c0,0-0.6-0.1-1.8,1.1S2.1,15.9,2.1,15.9s-1.2,1.7,0,2.8c1.2,1.1,49.1,40.9,49.1,40.9s1.3,1,2.6,0
		s49.3-41.1,49.3-41.1s1.2-1.1-0.5-2.8S89.2,2.3,89.2,2.3s-0.6-0.7-2.1-0.7C85.5,1.6,17.1,1.6,17.1,1.6z"/>
</g>
</svg>
