<?xml version="1.0" encoding="utf-8"?>
<!-- Generator: Adobe Illustrator 22.1.0, SVG Export Plug-In . SVG Version: 6.00 Build 0)  -->
<svg version="1.1" xmlns="http://www.w3.org/2000/svg" xmlns:xlink="http://www.w3.org/1999/xlink" x="0px" y="0px"
	 viewBox="0 0 105.1 61.6" style="enable-background:new 0 0 105.1 61.6;" xml:space="preserve">
<style type="text/css">
	.st0{fill:none;stroke:#00A1DE;stroke-width:1.8205;stroke-miterlimit:10;}
	.st1{fill:none;stroke:#0088BC;stroke-width:1.8205;stroke-miterlimit:10;}
	.st2{fill:#00A1DE;stroke:#0088BB;stroke-width:1.8205;stroke-miterlimit:10;}
	.st3{fill:none;stroke:#0088BC;stroke-width:3.1859;stroke-miterlimit:10;}
</style>
<g id="Layer_1">
</g>
<g id="Layer_4">
	<line class="st0" x1="3.3" y1="18.3" x2="29.4" y2="23.4"/>
	<line class="st0" x1="29.4" y1="23.4" x2="52.5" y2="3"/>
	<line class="st0" x1="52.5" y1="3" x2="75.4" y2="23.4"/>
	<line class="st0" x1="75.4" y1="23.9" x2="102" y2="17.7"/>
	<g id="Layer_3">
		<line class="st1" x1="16.3" y1="3" x2="52.5" y2="59.6"/>
		<line class="st2" x1="88.3" y1="3" x2="53.3" y2="58.5"/>
	</g>
</g>
<g id="Layer_2">
	<path class="st3" d="M17.1,1.6c0,0-0.6-0.1-1.8,1.1S2.1,15.9,2.1,15.9s-1.2,1.7,0,2.8c1.2,1.1,49.1,40.9,49.1,40.9s1.3,1,2.6,0
		c1.3-1,49.3-41.1,49.3-41.1s1.2-1.1-0.5-2.8S89.2,2.3,89.2,2.3s-0.6-0.7-2.1-0.7C85.5,1.6,17.1,1.6,17.1,1.6z"/>
</g>
</svg>
